<!DOCTYPE svg PUBLIC "-//W3C//DTD SVG 1.1//EN" "http://www.w3.org/Graphics/SVG/1.1/DTD/svg11.dtd">
<!-- Uploaded to: SVG Repo, www.svgrepo.com, Transformed by: SVG Repo Mixer Tools -->
<svg fill="#d20f0f" width="800px" height="800px" viewBox="0 0 24 24" xmlns="http://www.w3.org/2000/svg" stroke="#d20f0f">
<g id="SVGRepo_bgCarrier" stroke-width="0"/>
<g id="SVGRepo_tracerCarrier" stroke-linecap="round" stroke-linejoin="round"/>
<g id="SVGRepo_iconCarrier">
<path d="M20,10H4V21a1,1,0,0,0,1,1H19a1,1,0,0,0,1-1ZM9,18a1,1,0,0,1-2,0V14a1,1,0,0,1,2,0Zm4,0a1,1,0,0,1-2,0V14a1,1,0,0,1,2,0Zm4,0a1,1,0,0,1-2,0V14a1,1,0,0,1,2,0ZM22,5V8H2V5A1,1,0,0,1,3,4H8V3A1,1,0,0,1,9,2h6a1,1,0,0,1,1,1V4h5A1,1,0,0,1,22,5Z"/>
</g>
</svg>